# xmcd CD database file
#
# Track frame offsets:
#	150
#	18125
#	36780
#	54712
#
# Disc length: 974 seconds
#
# Revision: 0
# Processed by: cddbd v1.5.1PL2 Copyright (c) Steve Scherf et al.
# Submitted via: CDex 1.51
#
DISCID=2803cc04
DTITLE=星井　七瀬 - パーマパビリオン
DYEAR=2005
DGENRE=Pop
TTITLE0=パーマパビリオン
TTITLE1=金生黒ヒョウO型
TTITLE2=パーマパビリオン (Instrumental)
TTITLE3=金生黒ヒョウO型 (Instrumental)
EXTD=YEAR: 2005
EXTT0=
EXTT1=
EXTT2=
EXTT3=
PLAYORDER=
